<?xml version="1.0" standalone="no"?>
<!DOCTYPE svg PUBLIC "-//W3C//DTD SVG 1.0//EN" "http://www.w3.org/TR/2001/REC-SVG-20010904/DTD/svg10.dtd">
<svg xmlns="http://www.w3.org/2000/svg" xmlns:xlink="http://www.w3.org/1999/xlink" id="body_1" width="300" height="225">

<g transform="matrix(0.79496306 0 0 0.79496306 25.472212 -0)">
	<g>
        <path d="M142.896 250.73L149.118 250.73L149.118 266.619L142.896 266.619z" stroke="none" fill="none" />
        <path transform="matrix(0.7071 -0.7071 0.7071 0.7071 -114.6303 132.7698)"  d="M100.324 202.128L105.579994 202.128L105.579994 207.384L100.324 207.384z" stroke="none" fill="none" />
        <path d="M156.781 113.074C 195.819 113.074 231.11101 137.373 245.12 173.689L245.12 173.689L310.972 107.838C 287.097 43.523 226.639 2 156.768 2C 86.425 2 25.871 43.517 2.314 107.835L2.314 107.835L68.366005 173.887C 82.328 137.445 117.626 113.074 156.781 113.074z" stroke="none" fill="none" />
        <path d="M153.497 267.619L159.79199 267.619L159.79199 278.063L153.497 278.063z" stroke="none" fill="none" />
        <path transform="matrix(0.7071 -0.7071 0.7071 0.7071 -60.9382 155.01)"  d="M154.017 148.436L159.273 148.436L159.273 153.692L154.017 153.692z" stroke="none" fill="none" />
        <path transform="matrix(0.7071 -0.7071 0.7071 0.7071 -83.178 208.7023)"  d="M207.709 202.128L212.965 202.128L212.965 207.384L207.709 207.384z" stroke="none" fill="none" />
        <path d="M156.781 115.074C 118.15401 115.074 83.35801 139.299 69.91401 175.43399L69.91401 175.43399L97.82101 203.34099L156.64401 144.51898L215.46701 203.34097L243.57501 175.23297C 230.083 139.226 195.291 115.074 156.781 115.074z" stroke="none" fill="none" />
        <path d="M159.542 259.621L159.542 257.202L153.747 257.202L153.747 259.621L156.645 262.519L159.542 259.621" stroke="none" fill="none" />
        <path d="M204.5 204.756L209.277 199.979L161.422 152.125L156.645 156.902L151.86801 152.125L104.013016 199.979L108.790016 204.756L104.013016 209.53299L139.94801 245.46799C 144.06902 240.90498 150.02701 238.03198 156.64502 238.03198C 163.26302 238.03198 169.22102 240.90498 173.34203 245.46799L173.34203 245.46799L209.27702 209.53299L204.5 204.756zM156.645 216.091C 151.207 216.091 146.784 211.668 146.784 206.231C 146.784 200.794 151.208 196.37 156.64499 196.37C 162.08199 196.37 166.50598 200.79399 166.50598 206.23099C 166.50598 211.66798 162.082 216.091 156.645 216.091z" stroke="none" fill="none" />
        <path d="M156.645 197.869C 152.035 197.869 148.284 201.62001 148.284 206.23001C 148.284 210.84001 152.035 214.59001 156.64499 214.59001C 161.25497 214.59001 165.00598 210.84001 165.00598 206.23001C 165.00598 201.62001 161.255 197.869 156.645 197.869z" stroke="none" fill="none" />
        <path d="M156.645 240.032C 145.341 240.032 136.145 249.228 136.145 260.53198C 136.145 271.83597 145.341 281.03198 156.645 281.03198C 167.949 281.03198 177.145 271.83597 177.145 260.53198C 177.145 249.228 167.948 240.032 156.645 240.032zM150.119 267.619L141.897 267.619L141.897 249.73L150.119 249.73L150.119 267.619zM160.792 279.063L152.49701 279.063L152.49701 266.619L160.792 266.619L160.792 279.063zM161.042 260.242L156.645 264.639L152.248 260.242L152.248 255.70201L161.043 255.70201L161.043 260.242zM171.393 267.619L163.171 267.619L163.171 249.73L171.393 249.73L171.393 267.619z" stroke="none" fill="none" />
        <path d="M164.17 250.73L170.392 250.73L170.392 266.619L164.17 266.619z" stroke="none" fill="none" />
        <path d="M156.645 196.369C 151.207 196.369 146.784 200.793 146.784 206.23001C 146.784 211.66702 151.208 216.09001 156.64499 216.09001C 162.08199 216.09001 166.50598 211.667 166.50598 206.23001C 166.50598 200.79301 162.082 196.369 156.645 196.369zM156.645 214.591C 152.035 214.591 148.284 210.841 148.284 206.231C 148.284 201.621 152.035 197.87 156.64499 197.87C 161.25497 197.87 165.00598 201.621 165.00598 206.23099C 165.00598 210.84097 161.255 214.591 156.645 214.591z" stroke="none" fill="#000000" fill-rule="nonzero" />
        <path d="M152.247 260.242L156.644 264.639L161.041 260.242L161.041 255.70201L152.246 255.70201L152.246 260.242L152.247 260.242zM153.747 257.202L159.54199 257.202L159.54199 259.621L156.64499 262.518L153.74799 259.621L153.74799 257.202z" stroke="none" fill="#000000" fill-rule="nonzero" />
        <path d="M152.497 279.063L160.79199 279.063L160.79199 266.619L152.497 266.619L152.497 279.063zM153.497 267.619L159.79199 267.619L159.79199 278.063L153.497 278.063L153.497 267.619z" stroke="none" fill="#000000" fill-rule="nonzero" />
        <path d="M163.17 267.619L171.392 267.619L171.392 249.73L163.17 249.73L163.17 267.619zM164.17 250.73L170.392 250.73L170.392 266.619L164.17 266.619L164.17 250.73z" stroke="none" fill="#000000" fill-rule="nonzero" />
        <path d="M141.896 267.619L150.118 267.619L150.118 249.73L141.896 249.73L141.896 267.619zM142.896 250.73L149.118 250.73L149.118 266.619L142.896 266.619L142.896 250.73z" stroke="none" fill="#000000" fill-rule="nonzero" />
        <path d="M312.839 108.799L313.291 108.34801L313.06998 107.74701C 301.45898 76.09601 280.72998 49.181007 253.12798 29.91101C 225.097 10.344 191.775 0 156.768 0C 85.357 0 23.907 42.295 0.216 107.752L0.216 107.752L0 108.35L97.115 205.463L138.669 247.017C 135.83 250.783 134.145 255.464 134.145 260.532C 134.145 272.93802 144.238 283.032 156.645 283.032C 169.052 283.032 179.145 272.93802 179.145 260.532C 179.145 255.46402 177.459 250.78302 174.621 247.01701L174.621 247.01701L216.55 205.08801L312.839 108.799zM214.053 204.756L210.33699 208.472L206.62099 204.756L210.33699 201.04L214.053 204.756zM156.645 144.52L97.82201 203.34201L69.91501 175.43501C 83.35901 139.30002 118.155014 115.07501 156.78201 115.07501C 195.29102 115.07501 230.08401 139.22702 243.57602 175.23502L243.57602 175.23502L215.46802 203.34302L156.645 144.52zM156.645 147.348L160.36101 151.06401L156.645 154.78001L152.929 151.06401L156.645 147.348zM99.236 204.756L102.952 201.04L106.66801 204.756L102.952 208.472L99.236 204.756zM156.768 2C 226.639 2 287.09802 43.523 310.97302 107.838L310.97302 107.838L245.12103 173.689C 231.11203 137.37299 195.82004 113.07399 156.78204 113.07399C 117.627045 113.07399 82.32904 137.44398 68.36804 173.887L68.36804 173.887L2.314 107.835C 25.871 43.517 86.425 2 156.768 2zM156.645 281.032C 145.341 281.032 136.145 271.836 136.145 260.532C 136.145 249.22803 145.341 240.03201 156.645 240.03201C 167.949 240.03201 177.145 249.22801 177.145 260.532C 177.145 271.836 167.948 281.032 156.645 281.032zM156.645 238.032C 150.02701 238.032 144.069 240.905 139.948 245.468L139.948 245.468L104.013 209.533L108.79 204.75601L104.013 199.97902L151.868 152.12502L156.64499 156.90201L161.42198 152.12502L209.27698 199.97902L204.49998 204.75601L209.27698 209.533L173.34198 245.468C 169.221 240.905 163.262 238.032 156.645 238.032z" stroke="none" fill="#000000" fill-rule="nonzero" />
	</g>
</g>
</svg>